<mxfile host="65bd71144e">
    <diagram id="WLFqWWHnKTV5H4ZHUMWs" name="Page-1">
        <mxGraphModel dx="1632" dy="1147" grid="1" gridSize="10" guides="1" tooltips="1" connect="1" arrows="1" fold="1" page="1" pageScale="1" pageWidth="850" pageHeight="1100" math="0" shadow="0">
            <root>
                <mxCell id="0"/>
                <mxCell id="1" parent="0"/>
                <mxCell id="2" value="digraph &quot;classes&quot; {&#13;&#10;rankdir=BT&#13;&#10;charset=&quot;utf-8&quot;&#13;&#10;&quot;abc.ABC&quot; [color=&quot;black&quot;, fontcolor=&quot;black&quot;, label=&lt;{ABC|&lt;br ALIGN=&quot;LEFT&quot;/&gt;|}&gt;, shape=&quot;record&quot;, style=&quot;solid&quot;];&#13;&#10;&quot;src.User.Admin&quot; [color=&quot;black&quot;, fontcolor=&quot;black&quot;, label=&lt;{Admin|&lt;br ALIGN=&quot;LEFT&quot;/&gt;|}&gt;, shape=&quot;record&quot;, style=&quot;solid&quot;];&#13;&#10;&quot;src.CinemaController.Cinema&quot; [color=&quot;black&quot;, fontcolor=&quot;black&quot;, label=&lt;{Cinema|allAdmin : list&lt;br ALIGN=&quot;LEFT&quot;/&gt;allCustomer : list&lt;br ALIGN=&quot;LEFT&quot;/&gt;allHall : list&lt;br ALIGN=&quot;LEFT&quot;/&gt;allMovie : list&lt;br ALIGN=&quot;LEFT&quot;/&gt;allScreening : list&lt;br ALIGN=&quot;LEFT&quot;/&gt;allStaff : list&lt;br ALIGN=&quot;LEFT&quot;/&gt;loggedUser : NoneType&lt;br ALIGN=&quot;LEFT&quot;/&gt;loggedin : NoneType, int&lt;br ALIGN=&quot;LEFT&quot;/&gt;|addMovie(name: str, langauge: str, genre: str, releaseDate: date, duration: int): str&lt;br ALIGN=&quot;LEFT&quot;/&gt;addScreening(movie: Movie, dateT: datetime, hall: Hall): str&lt;br ALIGN=&quot;LEFT&quot;/&gt;browseAllMovie(): list&lt;br ALIGN=&quot;LEFT&quot;/&gt;checkSeatAvailability(screening: Screening): list&lt;br ALIGN=&quot;LEFT&quot;/&gt;hallSeatCreate(): list&lt;br ALIGN=&quot;LEFT&quot;/&gt;isValidCoupon(): bool&lt;br ALIGN=&quot;LEFT&quot;/&gt;login(userName: str, psw: str, userType: int): str&lt;br ALIGN=&quot;LEFT&quot;/&gt;makeBooking(screening: Screening, user: Customer, seatID: str, paymentType: str, price: Decimal, coupon): str&lt;br ALIGN=&quot;LEFT&quot;/&gt;movieDetail(movie: Movie): str&lt;br ALIGN=&quot;LEFT&quot;/&gt;movieSchedule(movie: Movie): list&lt;br ALIGN=&quot;LEFT&quot;/&gt;register(userName: str, psw: str): str&lt;br ALIGN=&quot;LEFT&quot;/&gt;removeMovie(movie: Movie): str&lt;br ALIGN=&quot;LEFT&quot;/&gt;removeScreening(screening: Screening): str&lt;br ALIGN=&quot;LEFT&quot;/&gt;removeTicket(user: Customer, ticket: Ticket): str&lt;br ALIGN=&quot;LEFT&quot;/&gt;searchMovieByDateAfter(searching: date): list&lt;br ALIGN=&quot;LEFT&quot;/&gt;searchMovieByStr(searching: str): list&lt;br ALIGN=&quot;LEFT&quot;/&gt;}&gt;, shape=&quot;record&quot;, style=&quot;solid&quot;];&#13;&#10;&quot;src.Coupon.Coupon&quot; [color=&quot;black&quot;, fontcolor=&quot;black&quot;, label=&lt;{Coupon|couponID&lt;br ALIGN=&quot;LEFT&quot;/&gt;discount&lt;br ALIGN=&quot;LEFT&quot;/&gt;expireDate&lt;br ALIGN=&quot;LEFT&quot;/&gt;userID&lt;br ALIGN=&quot;LEFT&quot;/&gt;valid&lt;br ALIGN=&quot;LEFT&quot;/&gt;|}&gt;, shape=&quot;record&quot;, style=&quot;solid&quot;];&#13;&#10;&quot;src.User.Customer&quot; [color=&quot;black&quot;, fontcolor=&quot;black&quot;, label=&lt;{Customer|coupon&lt;br ALIGN=&quot;LEFT&quot;/&gt;ticket&lt;br ALIGN=&quot;LEFT&quot;/&gt;|addCoupon(coupon: Coupon): None&lt;br ALIGN=&quot;LEFT&quot;/&gt;addTicket(ticket: Ticket): None&lt;br ALIGN=&quot;LEFT&quot;/&gt;removeCoupon(coupon: Coupon): None&lt;br ALIGN=&quot;LEFT&quot;/&gt;removeTicket(ticket: Ticket): None&lt;br ALIGN=&quot;LEFT&quot;/&gt;}&gt;, shape=&quot;record&quot;, style=&quot;solid&quot;];&#13;&#10;&quot;_pydecimal.Decimal&quot; [color=&quot;black&quot;, fontcolor=&quot;black&quot;, label=&lt;{Decimal|imag&lt;br ALIGN=&quot;LEFT&quot;/&gt;real&lt;br ALIGN=&quot;LEFT&quot;/&gt;to_integral&lt;br ALIGN=&quot;LEFT&quot;/&gt;|adjusted()&lt;br ALIGN=&quot;LEFT&quot;/&gt;as_integer_ratio()&lt;br ALIGN=&quot;LEFT&quot;/&gt;as_tuple()&lt;br ALIGN=&quot;LEFT&quot;/&gt;canonical()&lt;br ALIGN=&quot;LEFT&quot;/&gt;compare(other, context)&lt;br ALIGN=&quot;LEFT&quot;/&gt;compare_signal(other, context)&lt;br ALIGN=&quot;LEFT&quot;/&gt;compare_total(other, context)&lt;br ALIGN=&quot;LEFT&quot;/&gt;compare_total_mag(other, context)&lt;br ALIGN=&quot;LEFT&quot;/&gt;conjugate()&lt;br ALIGN=&quot;LEFT&quot;/&gt;copy_abs()&lt;br ALIGN=&quot;LEFT&quot;/&gt;copy_negate()&lt;br ALIGN=&quot;LEFT&quot;/&gt;copy_sign(other, context)&lt;br ALIGN=&quot;LEFT&quot;/&gt;exp(context)&lt;br ALIGN=&quot;LEFT&quot;/&gt;fma(other, third, context)&lt;br ALIGN=&quot;LEFT&quot;/&gt;from_float(f)&lt;br ALIGN=&quot;LEFT&quot;/&gt;is_canonical()&lt;br ALIGN=&quot;LEFT&quot;/&gt;is_finite()&lt;br ALIGN=&quot;LEFT&quot;/&gt;is_infinite()&lt;br ALIGN=&quot;LEFT&quot;/&gt;is_nan()&lt;br ALIGN=&quot;LEFT&quot;/&gt;is_normal(context)&lt;br ALIGN=&quot;LEFT&quot;/&gt;is_qnan()&lt;br ALIGN=&quot;LEFT&quot;/&gt;is_signed()&lt;br ALIGN=&quot;LEFT&quot;/&gt;is_snan()&lt;br ALIGN=&quot;LEFT&quot;/&gt;is_subnormal(context)&lt;br ALIGN=&quot;LEFT&quot;/&gt;is_zero()&lt;br ALIGN=&quot;LEFT&quot;/&gt;ln(context)&lt;br ALIGN=&quot;LEFT&quot;/&gt;log10(context)&lt;br ALIGN=&quot;LEFT&quot;/&gt;logb(context)&lt;br ALIGN=&quot;LEFT&quot;/&gt;logical_and(other, context)&lt;br ALIGN=&quot;LEFT&quot;/&gt;logical_invert(context)&lt;br ALIGN=&quot;LEFT&quot;/&gt;logical_or(other, context)&lt;br ALIGN=&quot;LEFT&quot;/&gt;logical_xor(other, context)&lt;br ALIGN=&quot;LEFT&quot;/&gt;max(other, context)&lt;br ALIGN=&quot;LEFT&quot;/&gt;max_mag(other, context)&lt;br ALIGN=&quot;LEFT&quot;/&gt;min(other, context)&lt;br ALIGN=&quot;LEFT&quot;/&gt;min_mag(other, context)&lt;br ALIGN=&quot;LEFT&quot;/&gt;next_minus(context)&lt;br ALIGN=&quot;LEFT&quot;/&gt;next_plus(context)&lt;br ALIGN=&quot;LEFT&quot;/&gt;next_toward(other, context)&lt;br ALIGN=&quot;LEFT&quot;/&gt;normalize(context)&lt;br ALIGN=&quot;LEFT&quot;/&gt;number_class(context)&lt;br ALIGN=&quot;LEFT&quot;/&gt;quantize(exp, rounding, context)&lt;br ALIGN=&quot;LEFT&quot;/&gt;radix()&lt;br ALIGN=&quot;LEFT&quot;/&gt;remainder_near(other, context)&lt;br ALIGN=&quot;LEFT&quot;/&gt;rotate(other, context)&lt;br ALIGN=&quot;LEFT&quot;/&gt;same_quantum(other, context)&lt;br ALIGN=&quot;LEFT&quot;/&gt;scaleb(other, context)&lt;br ALIGN=&quot;LEFT&quot;/&gt;shift(other, context)&lt;br ALIGN=&quot;LEFT&quot;/&gt;sqrt(context)&lt;br ALIGN=&quot;LEFT&quot;/&gt;to_eng_string(context)&lt;br ALIGN=&quot;LEFT&quot;/&gt;to_integral_exact(rounding, context)&lt;br ALIGN=&quot;LEFT&quot;/&gt;to_integral_value(rounding, context)&lt;br ALIGN=&quot;LEFT&quot;/&gt;}&gt;, shape=&quot;record&quot;, style=&quot;solid&quot;];&#13;&#10;&quot;_decimal.Decimal&quot; [color=&quot;black&quot;, fontcolor=&quot;black&quot;, label=&lt;{Decimal|&lt;br ALIGN=&quot;LEFT&quot;/&gt;|&lt;I&gt;adjusted&lt;/I&gt;()&lt;br ALIGN=&quot;LEFT&quot;/&gt;&lt;I&gt;as_integer_ratio&lt;/I&gt;()&lt;br ALIGN=&quot;LEFT&quot;/&gt;&lt;I&gt;as_tuple&lt;/I&gt;()&lt;br ALIGN=&quot;LEFT&quot;/&gt;&lt;I&gt;canonical&lt;/I&gt;()&lt;br ALIGN=&quot;LEFT&quot;/&gt;&lt;I&gt;compare&lt;/I&gt;()&lt;br ALIGN=&quot;LEFT&quot;/&gt;&lt;I&gt;compare_signal&lt;/I&gt;()&lt;br ALIGN=&quot;LEFT&quot;/&gt;&lt;I&gt;compare_total&lt;/I&gt;()&lt;br ALIGN=&quot;LEFT&quot;/&gt;&lt;I&gt;compare_total_mag&lt;/I&gt;()&lt;br ALIGN=&quot;LEFT&quot;/&gt;&lt;I&gt;conjugate&lt;/I&gt;()&lt;br ALIGN=&quot;LEFT&quot;/&gt;&lt;I&gt;copy_abs&lt;/I&gt;()&lt;br ALIGN=&quot;LEFT&quot;/&gt;&lt;I&gt;copy_negate&lt;/I&gt;()&lt;br ALIGN=&quot;LEFT&quot;/&gt;&lt;I&gt;copy_sign&lt;/I&gt;()&lt;br ALIGN=&quot;LEFT&quot;/&gt;&lt;I&gt;exp&lt;/I&gt;()&lt;br ALIGN=&quot;LEFT&quot;/&gt;&lt;I&gt;fma&lt;/I&gt;()&lt;br ALIGN=&quot;LEFT&quot;/&gt;&lt;I&gt;is_canonical&lt;/I&gt;()&lt;br ALIGN=&quot;LEFT&quot;/&gt;&lt;I&gt;is_finite&lt;/I&gt;()&lt;br ALIGN=&quot;LEFT&quot;/&gt;&lt;I&gt;is_infinite&lt;/I&gt;()&lt;br ALIGN=&quot;LEFT&quot;/&gt;&lt;I&gt;is_nan&lt;/I&gt;()&lt;br ALIGN=&quot;LEFT&quot;/&gt;&lt;I&gt;is_normal&lt;/I&gt;()&lt;br ALIGN=&quot;LEFT&quot;/&gt;&lt;I&gt;is_qnan&lt;/I&gt;()&lt;br ALIGN=&quot;LEFT&quot;/&gt;&lt;I&gt;is_signed&lt;/I&gt;()&lt;br ALIGN=&quot;LEFT&quot;/&gt;&lt;I&gt;is_snan&lt;/I&gt;()&lt;br ALIGN=&quot;LEFT&quot;/&gt;&lt;I&gt;is_subnormal&lt;/I&gt;()&lt;br ALIGN=&quot;LEFT&quot;/&gt;&lt;I&gt;is_zero&lt;/I&gt;()&lt;br ALIGN=&quot;LEFT&quot;/&gt;&lt;I&gt;ln&lt;/I&gt;()&lt;br ALIGN=&quot;LEFT&quot;/&gt;&lt;I&gt;log10&lt;/I&gt;()&lt;br ALIGN=&quot;LEFT&quot;/&gt;&lt;I&gt;logb&lt;/I&gt;()&lt;br ALIGN=&quot;LEFT&quot;/&gt;&lt;I&gt;logical_and&lt;/I&gt;()&lt;br ALIGN=&quot;LEFT&quot;/&gt;&lt;I&gt;logical_invert&lt;/I&gt;()&lt;br ALIGN=&quot;LEFT&quot;/&gt;&lt;I&gt;logical_or&lt;/I&gt;()&lt;br ALIGN=&quot;LEFT&quot;/&gt;&lt;I&gt;logical_xor&lt;/I&gt;()&lt;br ALIGN=&quot;LEFT&quot;/&gt;&lt;I&gt;max&lt;/I&gt;()&lt;br ALIGN=&quot;LEFT&quot;/&gt;&lt;I&gt;max_mag&lt;/I&gt;()&lt;br ALIGN=&quot;LEFT&quot;/&gt;&lt;I&gt;min&lt;/I&gt;()&lt;br ALIGN=&quot;LEFT&quot;/&gt;&lt;I&gt;min_mag&lt;/I&gt;()&lt;br ALIGN=&quot;LEFT&quot;/&gt;&lt;I&gt;next_minus&lt;/I&gt;()&lt;br ALIGN=&quot;LEFT&quot;/&gt;&lt;I&gt;next_plus&lt;/I&gt;()&lt;br ALIGN=&quot;LEFT&quot;/&gt;&lt;I&gt;next_toward&lt;/I&gt;()&lt;br ALIGN=&quot;LEFT&quot;/&gt;&lt;I&gt;normalize&lt;/I&gt;()&lt;br ALIGN=&quot;LEFT&quot;/&gt;&lt;I&gt;number_class&lt;/I&gt;()&lt;br ALIGN=&quot;LEFT&quot;/&gt;&lt;I&gt;quantize&lt;/I&gt;()&lt;br ALIGN=&quot;LEFT&quot;/&gt;&lt;I&gt;radix&lt;/I&gt;()&lt;br ALIGN=&quot;LEFT&quot;/&gt;&lt;I&gt;remainder_near&lt;/I&gt;()&lt;br ALIGN=&quot;LEFT&quot;/&gt;&lt;I&gt;rotate&lt;/I&gt;()&lt;br ALIGN=&quot;LEFT&quot;/&gt;&lt;I&gt;same_quantum&lt;/I&gt;()&lt;br ALIGN=&quot;LEFT&quot;/&gt;&lt;I&gt;scaleb&lt;/I&gt;()&lt;br ALIGN=&quot;LEFT&quot;/&gt;&lt;I&gt;shift&lt;/I&gt;()&lt;br ALIGN=&quot;LEFT&quot;/&gt;&lt;I&gt;sqrt&lt;/I&gt;()&lt;br ALIGN=&quot;LEFT&quot;/&gt;&lt;I&gt;to_eng_string&lt;/I&gt;()&lt;br ALIGN=&quot;LEFT&quot;/&gt;&lt;I&gt;to_integral&lt;/I&gt;()&lt;br ALIGN=&quot;LEFT&quot;/&gt;&lt;I&gt;to_integral_exact&lt;/I&gt;()&lt;br ALIGN=&quot;LEFT&quot;/&gt;&lt;I&gt;to_integral_value&lt;/I&gt;()&lt;br ALIGN=&quot;LEFT&quot;/&gt;}&gt;, shape=&quot;record&quot;, style=&quot;solid&quot;];&#13;&#10;&quot;src.Hall.Hall&quot; [color=&quot;black&quot;, fontcolor=&quot;black&quot;, label=&lt;{Hall|hallCapacity&lt;br ALIGN=&quot;LEFT&quot;/&gt;hallID&lt;br ALIGN=&quot;LEFT&quot;/&gt;|}&gt;, shape=&quot;record&quot;, style=&quot;solid&quot;];&#13;&#10;&quot;src.Movie.Movie&quot; [color=&quot;black&quot;, fontcolor=&quot;black&quot;, label=&lt;{Movie|duration&lt;br ALIGN=&quot;LEFT&quot;/&gt;genre&lt;br ALIGN=&quot;LEFT&quot;/&gt;lang&lt;br ALIGN=&quot;LEFT&quot;/&gt;movieID&lt;br ALIGN=&quot;LEFT&quot;/&gt;movieName&lt;br ALIGN=&quot;LEFT&quot;/&gt;releaseDate&lt;br ALIGN=&quot;LEFT&quot;/&gt;|}&gt;, shape=&quot;record&quot;, style=&quot;solid&quot;];&#13;&#10;&quot;src.Screening.Screening&quot; [color=&quot;black&quot;, fontcolor=&quot;black&quot;, label=&lt;{Screening|dateT&lt;br ALIGN=&quot;LEFT&quot;/&gt;dateTEnd&lt;br ALIGN=&quot;LEFT&quot;/&gt;hallID&lt;br ALIGN=&quot;LEFT&quot;/&gt;hallSeat&lt;br ALIGN=&quot;LEFT&quot;/&gt;movieID&lt;br ALIGN=&quot;LEFT&quot;/&gt;screeningID&lt;br ALIGN=&quot;LEFT&quot;/&gt;valid&lt;br ALIGN=&quot;LEFT&quot;/&gt;|markSeatFalse(seatID: str, userID: int)&lt;br ALIGN=&quot;LEFT&quot;/&gt;}&gt;, shape=&quot;record&quot;, style=&quot;solid&quot;];&#13;&#10;&quot;src.Seat.Seat&quot; [color=&quot;black&quot;, fontcolor=&quot;black&quot;, label=&lt;{Seat|available&lt;br ALIGN=&quot;LEFT&quot;/&gt;seatID&lt;br ALIGN=&quot;LEFT&quot;/&gt;userID&lt;br ALIGN=&quot;LEFT&quot;/&gt;|}&gt;, shape=&quot;record&quot;, style=&quot;solid&quot;];&#13;&#10;&quot;src.User.Staff&quot; [color=&quot;black&quot;, fontcolor=&quot;black&quot;, label=&lt;{Staff|&lt;br ALIGN=&quot;LEFT&quot;/&gt;|}&gt;, shape=&quot;record&quot;, style=&quot;solid&quot;];&#13;&#10;&quot;src.Ticket.Ticket&quot; [color=&quot;black&quot;, fontcolor=&quot;black&quot;, label=&lt;{Ticket|dateT&lt;br ALIGN=&quot;LEFT&quot;/&gt;paymentType&lt;br ALIGN=&quot;LEFT&quot;/&gt;price&lt;br ALIGN=&quot;LEFT&quot;/&gt;screeningID&lt;br ALIGN=&quot;LEFT&quot;/&gt;seat&lt;br ALIGN=&quot;LEFT&quot;/&gt;ticketID&lt;br ALIGN=&quot;LEFT&quot;/&gt;userID&lt;br ALIGN=&quot;LEFT&quot;/&gt;valid&lt;br ALIGN=&quot;LEFT&quot;/&gt;|}&gt;, shape=&quot;record&quot;, style=&quot;solid&quot;];&#13;&#10;&quot;src.User.User&quot; [color=&quot;black&quot;, fontcolor=&quot;black&quot;, label=&lt;{User|userID&lt;br ALIGN=&quot;LEFT&quot;/&gt;userMsg&lt;br ALIGN=&quot;LEFT&quot;/&gt;userPassword&lt;br ALIGN=&quot;LEFT&quot;/&gt;username&lt;br ALIGN=&quot;LEFT&quot;/&gt;|userMsgAdd(msg: str): None&lt;br ALIGN=&quot;LEFT&quot;/&gt;}&gt;, shape=&quot;record&quot;, style=&quot;solid&quot;];&#13;&#10;&quot;_datetime.datetime.date&quot; [color=&quot;black&quot;, fontcolor=&quot;black&quot;, label=&lt;{date|day&lt;br ALIGN=&quot;LEFT&quot;/&gt;month&lt;br ALIGN=&quot;LEFT&quot;/&gt;year&lt;br ALIGN=&quot;LEFT&quot;/&gt;|ctime()&lt;br ALIGN=&quot;LEFT&quot;/&gt;fromisocalendar(year, week, day)&lt;br ALIGN=&quot;LEFT&quot;/&gt;fromisoformat(date_string)&lt;br ALIGN=&quot;LEFT&quot;/&gt;fromordinal(n)&lt;br ALIGN=&quot;LEFT&quot;/&gt;fromtimestamp(t)&lt;br ALIGN=&quot;LEFT&quot;/&gt;isocalendar()&lt;br ALIGN=&quot;LEFT&quot;/&gt;isoformat()&lt;br ALIGN=&quot;LEFT&quot;/&gt;isoweekday()&lt;br ALIGN=&quot;LEFT&quot;/&gt;replace(year, month, day)&lt;br ALIGN=&quot;LEFT&quot;/&gt;strftime(fmt)&lt;br ALIGN=&quot;LEFT&quot;/&gt;timetuple()&lt;br ALIGN=&quot;LEFT&quot;/&gt;today()&lt;br ALIGN=&quot;LEFT&quot;/&gt;toordinal()&lt;br ALIGN=&quot;LEFT&quot;/&gt;weekday()&lt;br ALIGN=&quot;LEFT&quot;/&gt;}&gt;, shape=&quot;record&quot;, style=&quot;solid&quot;];&#13;&#10;&quot;datetime.date&quot; [color=&quot;black&quot;, fontcolor=&quot;black&quot;, label=&lt;{date|day&lt;br ALIGN=&quot;LEFT&quot;/&gt;month&lt;br ALIGN=&quot;LEFT&quot;/&gt;year&lt;br ALIGN=&quot;LEFT&quot;/&gt;|ctime()&lt;br ALIGN=&quot;LEFT&quot;/&gt;fromisocalendar(year, week, day)&lt;br ALIGN=&quot;LEFT&quot;/&gt;fromisoformat(date_string)&lt;br ALIGN=&quot;LEFT&quot;/&gt;fromordinal(n)&lt;br ALIGN=&quot;LEFT&quot;/&gt;fromtimestamp(t)&lt;br ALIGN=&quot;LEFT&quot;/&gt;isocalendar()&lt;br ALIGN=&quot;LEFT&quot;/&gt;isoformat()&lt;br ALIGN=&quot;LEFT&quot;/&gt;isoweekday()&lt;br ALIGN=&quot;LEFT&quot;/&gt;replace(year, month, day)&lt;br ALIGN=&quot;LEFT&quot;/&gt;strftime(fmt)&lt;br ALIGN=&quot;LEFT&quot;/&gt;timetuple()&lt;br ALIGN=&quot;LEFT&quot;/&gt;today()&lt;br ALIGN=&quot;LEFT&quot;/&gt;toordinal()&lt;br ALIGN=&quot;LEFT&quot;/&gt;weekday()&lt;br ALIGN=&quot;LEFT&quot;/&gt;}&gt;, shape=&quot;record&quot;, style=&quot;solid&quot;];&#13;&#10;&quot;datetime.datetime&quot; [color=&quot;black&quot;, fontcolor=&quot;black&quot;, label=&lt;{datetime|fold&lt;br ALIGN=&quot;LEFT&quot;/&gt;hour&lt;br ALIGN=&quot;LEFT&quot;/&gt;microsecond&lt;br ALIGN=&quot;LEFT&quot;/&gt;minute&lt;br ALIGN=&quot;LEFT&quot;/&gt;second&lt;br ALIGN=&quot;LEFT&quot;/&gt;tzinfo&lt;br ALIGN=&quot;LEFT&quot;/&gt;|astimezone(tz)&lt;br ALIGN=&quot;LEFT&quot;/&gt;combine(date, time, tzinfo)&lt;br ALIGN=&quot;LEFT&quot;/&gt;ctime()&lt;br ALIGN=&quot;LEFT&quot;/&gt;date()&lt;br ALIGN=&quot;LEFT&quot;/&gt;dst()&lt;br ALIGN=&quot;LEFT&quot;/&gt;fromisoformat(date_string)&lt;br ALIGN=&quot;LEFT&quot;/&gt;fromtimestamp(t, tz)&lt;br ALIGN=&quot;LEFT&quot;/&gt;isoformat(sep, timespec)&lt;br ALIGN=&quot;LEFT&quot;/&gt;now(tz)&lt;br ALIGN=&quot;LEFT&quot;/&gt;replace(year, month, day, hour, minute, second, microsecond, tzinfo)&lt;br ALIGN=&quot;LEFT&quot;/&gt;strptime(date_string, format)&lt;br ALIGN=&quot;LEFT&quot;/&gt;time()&lt;br ALIGN=&quot;LEFT&quot;/&gt;timestamp()&lt;br ALIGN=&quot;LEFT&quot;/&gt;timetuple()&lt;br ALIGN=&quot;LEFT&quot;/&gt;timetz()&lt;br ALIGN=&quot;LEFT&quot;/&gt;tzname()&lt;br ALIGN=&quot;LEFT&quot;/&gt;utcfromtimestamp(t)&lt;br ALIGN=&quot;LEFT&quot;/&gt;utcnow()&lt;br ALIGN=&quot;LEFT&quot;/&gt;utcoffset()&lt;br ALIGN=&quot;LEFT&quot;/&gt;utctimetuple()&lt;br ALIGN=&quot;LEFT&quot;/&gt;}&gt;, shape=&quot;record&quot;, style=&quot;solid&quot;];&#13;&#10;&quot;_datetime.datetime.datetime&quot; [color=&quot;black&quot;, fontcolor=&quot;black&quot;, label=&lt;{datetime|fold&lt;br ALIGN=&quot;LEFT&quot;/&gt;hour&lt;br ALIGN=&quot;LEFT&quot;/&gt;microsecond&lt;br ALIGN=&quot;LEFT&quot;/&gt;minute&lt;br ALIGN=&quot;LEFT&quot;/&gt;second&lt;br ALIGN=&quot;LEFT&quot;/&gt;tzinfo&lt;br ALIGN=&quot;LEFT&quot;/&gt;|astimezone(tz)&lt;br ALIGN=&quot;LEFT&quot;/&gt;combine(date, time, tzinfo)&lt;br ALIGN=&quot;LEFT&quot;/&gt;ctime()&lt;br ALIGN=&quot;LEFT&quot;/&gt;date()&lt;br ALIGN=&quot;LEFT&quot;/&gt;dst()&lt;br ALIGN=&quot;LEFT&quot;/&gt;fromisoformat(date_string)&lt;br ALIGN=&quot;LEFT&quot;/&gt;fromtimestamp(t, tz)&lt;br ALIGN=&quot;LEFT&quot;/&gt;isoformat(sep, timespec)&lt;br ALIGN=&quot;LEFT&quot;/&gt;now(tz)&lt;br ALIGN=&quot;LEFT&quot;/&gt;replace(year, month, day, hour, minute, second, microsecond, tzinfo)&lt;br ALIGN=&quot;LEFT&quot;/&gt;strptime(date_string, format)&lt;br ALIGN=&quot;LEFT&quot;/&gt;time()&lt;br ALIGN=&quot;LEFT&quot;/&gt;timestamp()&lt;br ALIGN=&quot;LEFT&quot;/&gt;timetuple()&lt;br ALIGN=&quot;LEFT&quot;/&gt;timetz()&lt;br ALIGN=&quot;LEFT&quot;/&gt;tzname()&lt;br ALIGN=&quot;LEFT&quot;/&gt;utcfromtimestamp(t)&lt;br ALIGN=&quot;LEFT&quot;/&gt;utcnow()&lt;br ALIGN=&quot;LEFT&quot;/&gt;utcoffset()&lt;br ALIGN=&quot;LEFT&quot;/&gt;utctimetuple()&lt;br ALIGN=&quot;LEFT&quot;/&gt;}&gt;, shape=&quot;record&quot;, style=&quot;solid&quot;];&#13;&#10;&quot;_datetime.datetime.datetime&quot; -&gt; &quot;_datetime.datetime.date&quot; [arrowhead=&quot;empty&quot;, arrowtail=&quot;none&quot;];&#13;&#10;&quot;datetime.datetime&quot; -&gt; &quot;datetime.date&quot; [arrowhead=&quot;empty&quot;, arrowtail=&quot;none&quot;];&#13;&#10;&quot;src.User.Admin&quot; -&gt; &quot;src.User.User&quot; [arrowhead=&quot;empty&quot;, arrowtail=&quot;none&quot;];&#13;&#10;&quot;src.User.Customer&quot; -&gt; &quot;src.User.User&quot; [arrowhead=&quot;empty&quot;, arrowtail=&quot;none&quot;];&#13;&#10;&quot;src.User.Staff&quot; -&gt; &quot;src.User.User&quot; [arrowhead=&quot;empty&quot;, arrowtail=&quot;none&quot;];&#13;&#10;&quot;src.User.User&quot; -&gt; &quot;abc.ABC&quot; [arrowhead=&quot;empty&quot;, arrowtail=&quot;none&quot;];&#13;&#10;&quot;_datetime.datetime.date&quot; -&gt; &quot;src.Coupon.Coupon&quot; [arrowhead=&quot;odiamond&quot;, arrowtail=&quot;none&quot;, fontcolor=&quot;green&quot;, label=&quot;__expireDate&quot;, style=&quot;solid&quot;];&#13;&#10;&quot;_datetime.datetime.date&quot; -&gt; &quot;src.Movie.Movie&quot; [arrowhead=&quot;odiamond&quot;, arrowtail=&quot;none&quot;, fontcolor=&quot;green&quot;, label=&quot;__releaseDate&quot;, style=&quot;solid&quot;];&#13;&#10;&quot;_datetime.datetime.datetime&quot; -&gt; &quot;src.Screening.Screening&quot; [arrowhead=&quot;odiamond&quot;, arrowtail=&quot;none&quot;, fontcolor=&quot;green&quot;, label=&quot;__dateT&quot;, style=&quot;solid&quot;];&#13;&#10;&quot;_datetime.datetime.datetime&quot; -&gt; &quot;src.Screening.Screening&quot; [arrowhead=&quot;odiamond&quot;, arrowtail=&quot;none&quot;, fontcolor=&quot;green&quot;, label=&quot;__dateTEnd&quot;, style=&quot;solid&quot;];&#13;&#10;&quot;_datetime.datetime.datetime&quot; -&gt; &quot;src.Ticket.Ticket&quot; [arrowhead=&quot;odiamond&quot;, arrowtail=&quot;none&quot;, fontcolor=&quot;green&quot;, label=&quot;__dateT&quot;, style=&quot;solid&quot;];&#13;&#10;&quot;_decimal.Decimal&quot; -&gt; &quot;src.Ticket.Ticket&quot; [arrowhead=&quot;odiamond&quot;, arrowtail=&quot;none&quot;, fontcolor=&quot;green&quot;, label=&quot;__price&quot;, style=&quot;solid&quot;];&#13;&#10;&quot;_pydecimal.Decimal&quot; -&gt; &quot;src.Ticket.Ticket&quot; [arrowhead=&quot;odiamond&quot;, arrowtail=&quot;none&quot;, fontcolor=&quot;green&quot;, label=&quot;__price&quot;, style=&quot;solid&quot;];&#13;&#10;&quot;datetime.date&quot; -&gt; &quot;src.Coupon.Coupon&quot; [arrowhead=&quot;odiamond&quot;, arrowtail=&quot;none&quot;, fontcolor=&quot;green&quot;, label=&quot;__expireDate&quot;, style=&quot;solid&quot;];&#13;&#10;&quot;datetime.date&quot; -&gt; &quot;src.Movie.Movie&quot; [arrowhead=&quot;odiamond&quot;, arrowtail=&quot;none&quot;, fontcolor=&quot;green&quot;, label=&quot;__releaseDate&quot;, style=&quot;solid&quot;];&#13;&#10;&quot;datetime.datetime&quot; -&gt; &quot;src.Screening.Screening&quot; [arrowhead=&quot;odiamond&quot;, arrowtail=&quot;none&quot;, fontcolor=&quot;green&quot;, label=&quot;__dateT&quot;, style=&quot;solid&quot;];&#13;&#10;&quot;datetime.datetime&quot; -&gt; &quot;src.Screening.Screening&quot; [arrowhead=&quot;odiamond&quot;, arrowtail=&quot;none&quot;, fontcolor=&quot;green&quot;, label=&quot;__dateTEnd&quot;, style=&quot;solid&quot;];&#13;&#10;&quot;datetime.datetime&quot; -&gt; &quot;src.Ticket.Ticket&quot; [arrowhead=&quot;odiamond&quot;, arrowtail=&quot;none&quot;, fontcolor=&quot;green&quot;, label=&quot;__dateT&quot;, style=&quot;solid&quot;];&#13;&#10;}" style="text;whiteSpace=wrap;html=1;" vertex="1" parent="1">
                    <mxGeometry x="160" y="810" width="630" height="3790" as="geometry"/>
                </mxCell>
            </root>
        </mxGraphModel>
    </diagram>
</mxfile>